[Header]
FileType HTR
DataType HTRS
FileVersion 1
NumSegments 64
NumFrames 4
DataFrameRate 24
EulerRotationOrder ZYX
CalibrationUnits mm
RotationUnits Degrees
GlobalAxisofGravity Y
BoneLengthAxis Y
ScaleFactor 1.0
[SegmentNames&Hierarchy]
Hips	GLOBAL
Spine	Hips
Spine1	Spine
Spine2	Spine1
Neck	Spine2
Head	Neck
LeftEye	Head
RightEye	Head
LeftShoulder	Spine2
LeftArm	LeftShoulder
LeftForeArm	LeftArm
LeftHand	LeftForeArm
LeftHandThumb1	LeftHand
LeftHandThumb2	LeftHandThumb1
LeftHandThumb3	LeftHandThumb2
LeftHandThumb4	LeftHandThumb3
LeftHandIndex1	LeftHand
LeftHandIndex2	LeftHandIndex1
LeftHandIndex3	LeftHandIndex2
LeftHandIndex4	LeftHandIndex3
LeftHandMiddle1	LeftHand
LeftHandMiddle2	LeftHandMiddle1
LeftHandMiddle3	LeftHandMiddle2
LeftHandMiddle4	LeftHandMiddle3
LeftHandRing1	LeftHand
LeftHandRing2	LeftHandRing1
LeftHandRing3	LeftHandRing2
LeftHandRing4	LeftHandRing3
LeftHandPinky1	LeftHand
LeftHandPinky2	LeftHandPinky1
LeftHandPinky3	LeftHandPinky2
LeftHandPinky4	LeftHandPinky3
RightShoulder	Spine2
RightArm	RightShoulder
RightForeArm	RightArm
RightHand	RightForeArm
RightHandPinky1	RightHand
RightHandPinky2	RightHandPinky1
RightHandPinky3	RightHandPinky2
RightHandPinky4	RightHandPinky3
RightHandRing1	RightHand
RightHandRing2	RightHandRing1
RightHandRing3	RightHandRing2
RightHandRing4	RightHandRing3
RightHandMiddle1	RightHand
RightHandMiddle2	RightHandMiddle1
RightHandMiddle3	RightHandMiddle2
RightHandMiddle4	RightHandMiddle3
RightHandIndex1	RightHand
RightHandIndex2	RightHandIndex1
RightHandIndex3	RightHandIndex2
RightHandIndex4	RightHandIndex3
RightHandThumb1	RightHand
RightHandThumb2	RightHandThumb1
RightHandThumb3	RightHandThumb2
RightHandThumb4	RightHandThumb3
LeftUpLeg	Hips
LeftLeg	LeftUpLeg
LeftFoot	LeftLeg
LeftToeBase	LeftFoot
RightUpLeg	Hips
RightLeg	RightUpLeg
RightFoot	RightLeg
RightToeBase	RightFoot
[BasePosition]
Hips	0	0	0	0	0	0	1
Spine	0	0	0	0	0	0	1
Spine1	0	0	0	0	0	0	1
Spine2	0	0	0	0	0	0	1
Neck	0	0	0	0	0	0	1
Head	0	0	0	0	0	0	1
LeftEye	0	0	0	0	0	0	1
RightEye	0	0	0	0	0	0	1
LeftShoulder	0	0	0	0	0	0	1
LeftArm	0	0	0	0	0	0	1
LeftForeArm	0	0	0	0	0	0	1
LeftHand	0	0	0	0	0	0	1
LeftHandThumb1	0	0	0	0	0	0	1
LeftHandThumb2	0	0	0	0	0	0	1
LeftHandThumb3	0	0	0	0	0	0	1
LeftHandThumb4	0	0	0	0	0	0	1
LeftHandIndex1	0	0	0	0	0	0	1
LeftHandIndex2	0	0	0	0	0	0	1
LeftHandIndex3	0	0	0	0	0	0	1
LeftHandIndex4	0	0	0	0	0	0	1
LeftHandMiddle1	0	0	0	0	0	0	1
LeftHandMiddle2	0	0	0	0	0	0	1
LeftHandMiddle3	0	0	0	0	0	0	1
LeftHandMiddle4	0	0	0	0	0	0	1
LeftHandRing1	0	0	0	0	0	0	1
LeftHandRing2	0	0	0	0	0	0	1
LeftHandRing3	0	0	0	0	0	0	1
LeftHandRing4	0	0	0	0	0	0	1
LeftHandPinky1	0	0	0	0	0	0	1
LeftHandPinky2	0	0	0	0	0	0	1
LeftHandPinky3	0	0	0	0	0	0	1
LeftHandPinky4	0	0	0	0	0	0	1
RightShoulder	0	0	0	0	0	0	1
RightArm	0	0	0	0	0	0	1
RightForeArm	0	0	0	0	0	0	1
RightHand	0	0	0	0	0	0	1
RightHandPinky1	0	0	0	0	0	0	1
RightHandPinky2	0	0	0	0	0	0	1
RightHandPinky3	0	0	0	0	0	0	1
RightHandPinky4	0	0	0	0	0	0	1
RightHandRing1	0	0	0	0	0	0	1
RightHandRing2	0	0	0	0	0	0	1
RightHandRing3	0	0	0	0	0	0	1
RightHandRing4	0	0	0	0	0	0	1
RightHandMiddle1	0	0	0	0	0	0	1
RightHandMiddle2	0	0	0	0	0	0	1
RightHandMiddle3	0	0	0	0	0	0	1
RightHandMiddle4	0	0	0	0	0	0	1
RightHandIndex1	0	0	0	0	0	0	1
RightHandIndex2	0	0	0	0	0	0	1
RightHandIndex3	0	0	0	0	0	0	1
RightHandIndex4	0	0	0	0	0	0	1
RightHandThumb1	0	0	0	0	0	0	1
RightHandThumb2	0	0	0	0	0	0	1
RightHandThumb3	0	0	0	0	0	0	1
RightHandThumb4	0	0	0	0	0	0	1
LeftUpLeg	0	0	0	0	0	0	1
LeftLeg	0	0	0	0	0	0	1
LeftFoot	0	0	0	0	0	0	1
LeftToeBase	0	0	0	0	0	0	1
RightUpLeg	0	0	0	0	0	0	1
RightLeg	0	0	0	0	0	0	1
RightFoot	0	0	0	0	0	0	1
RightToeBase	0	0	0	0	0	0	1
[Hips]
96	-55.10128403	838.706665	-23.30896378	-0.008297453634	-8.77782917	3.033777714	1.0
97	-51.70475769	832.0319214	-17.89030457	-1.64811182	-6.717290878	1.75619936	1.0
98	-47.80910873	829.9381104	-11.95448494	-3.207337141	-4.859753132	0.7108237147	1.0
99	-44.00934601	832.3326416	-6.003584862	-4.534660339	-3.193571091	-0.2422338575	1.0
[Spine]
96	9.234152094e-05	101.8158798	1.31520927	19.67330933	0.3871815205	10.36206245	1.0
97	9.234152094e-05	101.8158798	1.31520927	18.87616539	-0.2526339889	10.12461948	1.0
98	9.234152094e-05	101.8158798	1.31520927	17.6978817	-0.9229841828	9.827749252	1.0
99	9.234152094e-05	101.8158798	1.31520927	16.05909157	-1.46199441	9.550990105	1.0
[Spine1]
96	2.519402869e-06	100.8345108	-10.00804329	-0.8342362642	-0.5583232641	3.745693684	1.0
97	2.519402869e-06	100.8345108	-10.00804329	-0.8206580877	-0.6288108826	3.581818581	1.0
98	2.519402869e-06	100.8345108	-10.00804329	-0.8458357453	-0.699007988	3.400691032	1.0
99	2.519402869e-06	100.8345108	-10.00804329	-0.9775778651	-0.7467150092	3.263859272	1.0
[Spine2]
96	3.4574864e-06	91.00010681	-13.73417091	-0.8551787734	-0.8481013179	1.861659884	1.0
97	3.4574864e-06	91.00010681	-13.73417091	-0.8318235874	-0.9183696508	1.607209086	1.0
98	3.4574864e-06	91.00010681	-13.73417091	-0.8470093012	-0.9910238385	1.335641861	1.0
99	3.4574864e-06	91.00010681	-13.73417091	-0.9707465768	-1.052060485	1.108543873	1.0
[Neck]
96	6.334285445e-06	166.7166901	-25.16167831	3.131887913	0.6251879334	-2.524928331	1.0
97	6.334285445e-06	166.7166901	-25.16167831	3.470543861	0.5016967058	-2.534229994	1.0
98	6.334285445e-06	166.7166901	-25.16167831	3.894847155	0.3880440295	-2.582829952	1.0
99	6.334285445e-06	166.7166901	-25.16167831	4.475728989	0.2876913548	-2.60189867	1.0
[Head]
96	-4.242318937e-06	96.17874908	16.85007477	-25.94511795	6.299414158	-16.19663048	1.0
97	-4.242318937e-06	96.17874908	16.85007477	-24.73239899	4.23657465	-14.87856388	1.0
98	-4.242318937e-06	96.17874908	16.85007477	-22.9635582	2.32420373	-13.58974457	1.0
99	-4.242318937e-06	96.17874908	16.85007477	-20.28541374	0.6249697804	-12.37436676	1.0
[LeftEye]
96	30.67560577	64.09507751	92.83554077	0	0	0	1.0
97	30.67560577	64.09507751	92.83554077	0	0	0	1.0
98	30.67560577	64.09507751	92.83554077	0	0	0	1.0
99	30.67560577	64.09507751	92.83554077	0	0	0	1.0
[RightEye]
96	-30.67550468	64.09500122	92.83547211	0	0	0	1.0
97	-30.67550468	64.09500122	92.83547211	0	0	0	1.0
98	-30.67550468	64.09500122	92.83547211	0	0	0	1.0
99	-30.67550468	64.09500122	92.83547211	0	0	0	1.0
[LeftShoulder]
96	45.70446396	109.4598465	-26.27988052	6.029282093	-13.81124306	-17.9389019	1.0
97	45.70446396	109.4598465	-26.27988052	6.446518898	-14.06864071	-19.07671928	1.0
98	45.70446396	109.4598465	-26.27988052	6.770198822	-14.35272884	-19.92575073	1.0
99	45.70446396	109.4598465	-26.27988052	7.017311573	-14.47089005	-20.08251381	1.0
[LeftArm]
96	105.9236984	-5.245829105	-22.32120132	-8.639884949	2.74553442	-37.07475281	1.0
97	105.9236984	-5.245829105	-22.32120132	2.47079134	2.148782015	-41.90335464	1.0
98	105.9236984	-5.245829105	-22.32120132	13.50858974	1.721386194	-45.43395615	1.0
99	105.9236984	-5.245829105	-22.32120132	22.33617973	0.8230913877	-46.94848251	1.0
[LeftForeArm]
96	278.4151917	-0.0008942864952	0.0003745891154	-88.7292099	-78.11173248	99.95198059	1.0
97	278.4151917	-0.0008942864952	0.0003745891154	-103.0594864	-68.34414673	125.9573898	1.0
98	278.4151917	-0.0008942864952	0.0003745891154	-103.9256058	-59.81882477	130.1893311	1.0
99	278.4151917	-0.0008942864952	0.0003745891154	-106.8025513	-55.95568848	132.0760803	1.0
[LeftHand]
96	283.2883911	-0.0001744071778	0.0003780452244	-50.78155518	4.707509518	1.99702549	1.0
97	283.2883911	-0.0001744071778	0.0003780452244	-58.77462769	4.596377373	2.583257437	1.0
98	283.2883911	-0.0001744071778	0.0003780452244	-65.87350464	3.934618235	3.659124136	1.0
99	283.2883911	-0.0001744071778	0.0003780452244	-71.82746887	3.209652185	4.702214718	1.0
[LeftHandThumb1]
96	24.66140366	-15.7504921	26.82413483	-19.50439072	-0.6068114042	-11.61795902	1.0
97	24.66140366	-15.7504921	26.82413483	-19.53326035	-0.7411264181	-11.71697998	1.0
98	24.66140366	-15.7504921	26.82413483	-19.55291176	-0.8891026378	-11.81231403	1.0
99	24.66140366	-15.7504921	26.82413483	-19.44642067	-1.09572494	-11.79099083	1.0
[LeftHandThumb2]
96	32.29803848	-18.6469059	18.64681244	31.47246742	31.50710106	31.6132946	1.0
97	32.29803848	-18.6469059	18.64681244	31.27802277	31.53969955	31.52725601	1.0
98	32.29803848	-18.6469059	18.64681244	31.05422211	31.57275772	31.42204285	1.0
99	32.29803848	-18.6469059	18.64681244	30.63636589	31.58532524	31.15936852	1.0
[LeftHandThumb3]
96	26.52565002	-15.31492996	15.31471634	-9.532446861	25.32396126	5.290449619	1.0
97	26.52565002	-15.31492996	15.31471634	-9.773921013	25.06640434	4.994784832	1.0
98	26.52565002	-15.31492996	15.31471634	-10.03085518	24.77474976	4.678420544	1.0
99	26.52565002	-15.31492996	15.31471634	-10.29132748	24.28277016	4.341748714	1.0
[LeftHandThumb4]
96	19.54566956	-11.2850008	11.28492165	0	0	0	1.0
97	19.54566956	-11.2850008	11.28492165	0	0	0	1.0
98	19.54566956	-11.2850008	11.28492165	0	0	0	1.0
99	19.54566956	-11.2850008	11.28492165	0	0	0	1.0
[LeftHandIndex1]
96	91.09301758	-5.170834064	22.6007309	-7.123227119	7.65934515	-85.75886536	1.0
97	91.09301758	-5.170834064	22.6007309	-7.152398586	7.498058319	-85.72356415	1.0
98	91.09301758	-5.170834064	22.6007309	-7.180960655	7.321629047	-85.6404953	1.0
99	91.09301758	-5.170834064	22.6007309	-7.179760456	7.088158607	-85.02799225	1.0
[LeftHandIndex2]
96	36.76409531	-6.939138257e-05	0.0002924251603	-3.127165318	4.769825459	-57.08829117	1.0
97	36.76409531	-6.939138257e-05	0.0002924251603	-3.147949219	4.776981354	-57.24007416	1.0
98	36.76409531	-6.939138257e-05	0.0002924251603	-3.167479038	4.783701897	-57.38276291	1.0
99	36.76409531	-6.939138257e-05	0.0002924251603	-3.157017946	4.779911518	-57.30676651	1.0
[LeftHandIndex3]
96	28.83062553	0.000385119667	-0.0004276481632	-1.036677122	4.927170277	-48.53094864	1.0
97	28.83062553	0.000385119667	-0.0004276481632	-1.045981646	4.937270164	-48.65714645	1.0
98	28.83062553	0.000385119667	-0.0004276481632	-1.054738045	4.946764946	-48.77577209	1.0
99	28.83062553	0.000385119667	-0.0004276481632	-1.050089598	4.941627979	-48.71199036	1.0
[LeftHandIndex4]
96	23.92720032	0.0003702590766	0.0003355443478	0	0	0	1.0
97	23.92720032	0.0003702590766	0.0003355443478	0	0	0	1.0
98	23.92720032	0.0003702590766	0.0003355443478	0	0	0	1.0
99	23.92720032	0.0003702590766	0.0003355443478	0	0	0	1.0
[LeftHandMiddle1]
96	95.33401489	-0.000339240476	0.0001393702551	-10.90211296	8.281571388	-83.58919525	1.0
97	95.33401489	-0.000339240476	0.0001393702551	-10.94848251	8.284422874	-83.62714386	1.0
98	95.33401489	-0.000339240476	0.0001393702551	-10.99281216	8.287630081	-83.62667847	1.0
99	95.33401489	-0.000339240476	0.0001393702551	-10.97841454	8.291285515	-83.1509552	1.0
[LeftHandMiddle2]
96	36.98236847	1.961359158e-05	0.0001791696704	-4.030378342	6.815244675	-86.11283112	1.0
97	36.98236847	1.961359158e-05	0.0001791696704	-4.048566341	6.820572853	-86.37592316	1.0
98	36.98236847	1.961359158e-05	0.0001791696704	-4.06565237	6.825555325	-86.62307739	1.0
99	36.98236847	1.961359158e-05	0.0001791696704	-4.056595802	6.822484493	-86.48899078	1.0
[LeftHandMiddle3]
96	29.50921631	-0.0003937608562	0.0001644795993	-2.446722269	4.695498943	-54.48933411	1.0
97	29.50921631	-0.0003937608562	0.0001644795993	-2.459424019	4.703822613	-54.63624573	1.0
98	29.50921631	-0.0003937608562	0.0001644795993	-2.47135973	4.711642265	-54.7743454	1.0
99	29.50921631	-0.0003937608562	0.0001644795993	-2.46498251	4.707388401	-54.70051193	1.0
[LeftHandMiddle4]
96	28.3390255	-0.0003893481917	-9.504223272e-05	0	0	0	1.0
97	28.3390255	-0.0003893481917	-9.504223272e-05	0	0	0	1.0
98	28.3390255	-0.0003893481917	-9.504223272e-05	0	0	0	1.0
99	28.3390255	-0.0003893481917	-9.504223272e-05	0	0	0	1.0
[LeftHandRing1]
96	91.04527283	-0.4393950403	-18.65084648	-16.15073204	8.007936478	-90.9942627	1.0
97	91.04527283	-0.4393950403	-18.65084648	-16.21423721	8.102964401	-91.19285583	1.0
98	91.04527283	-0.4393950403	-18.65084648	-16.27637291	8.209451675	-91.36626434	1.0
99	91.04527283	-0.4393950403	-18.65084648	-16.27485085	8.376885414	-91.09733582	1.0
[LeftHandRing2]
96	31.54026794	-6.55346812e-05	0.000104257444	-3.327458143	7.83723259	-97.6293335	1.0
97	31.54026794	-6.55346812e-05	0.000104257444	-3.326865911	7.84440136	-97.89503479	1.0
98	31.54026794	-6.55346812e-05	0.000104257444	-3.32630825	7.851098537	-98.14466858	1.0
99	31.54026794	-6.55346812e-05	0.000104257444	-3.326868773	7.847196579	-98.00933838	1.0
[LeftHandRing3]
96	29.37672424	-0.0004545861739	-6.864757597e-05	1.307849169	5.6088624	-48.36698151	1.0
97	29.37672424	-0.0004545861739	-6.864757597e-05	1.319548845	5.622418404	-48.48728943	1.0
98	29.37672424	-0.0004545861739	-6.864757597e-05	1.330527306	5.635164738	-48.60038376	1.0
99	29.37672424	-0.0004545861739	-6.864757597e-05	1.324226975	5.628572941	-48.53977966	1.0
[LeftHandRing4]
96	26.47452545	-0.0004980441299	7.070515267e-07	0	0	0	1.0
97	26.47452545	-0.0004980441299	7.070515267e-07	0	0	0	1.0
98	26.47452545	-0.0004980441299	7.070515267e-07	0	0	0	1.0
99	26.47452545	-0.0004980441299	7.070515267e-07	0	0	0	1.0
[LeftHandPinky1]
96	80.77777863	-4.886682034	-38.06066895	-22.56801414	6.058736324	-97.92402649	1.0
97	80.77777863	-4.886682034	-38.06066895	-22.68964195	6.277402401	-98.36647797	1.0
98	80.77777863	-4.886682034	-38.06066895	-22.81589508	6.522796631	-98.80709839	1.0
99	80.77777863	-4.886682034	-38.06066895	-22.90504837	6.91477108	-98.89411163	1.0
[LeftHandPinky2]
96	36.00034332	-2.252215199e-05	-0.0002623879409	-0.4358212352	10.13129711	-85.03675079	1.0
97	36.00034332	-2.252215199e-05	-0.0002623879409	-0.4451568425	10.1503067	-85.28353119	1.0
98	36.00034332	-2.252215199e-05	-0.0002623879409	-0.4539187849	10.1681366	-85.51538849	1.0
99	36.00034332	-2.252215199e-05	-0.0002623879409	-0.4494075477	10.1582613	-85.38996887	1.0
[LeftHandPinky3]
96	21.14211655	0.0001953828178	-2.864415183e-05	-1.695567131	4.827600956	-52.19231796	1.0
97	21.14211655	0.0001953828178	-2.864415183e-05	-1.686493635	4.834963799	-52.31161118	1.0
98	21.14211655	0.0001953828178	-2.864415183e-05	-1.677985311	4.841897488	-52.42375183	1.0
99	21.14211655	0.0001953828178	-2.864415183e-05	-1.68296206	4.83843565	-52.3635788	1.0
[LeftHandPinky4]
96	19.7568264	0.0001240565616	-0.0004430140834	0	0	0	1.0
97	19.7568264	0.0001240565616	-0.0004430140834	0	0	0	1.0
98	19.7568264	0.0001240565616	-0.0004430140834	0	0	0	1.0
99	19.7568264	0.0001240565616	-0.0004430140834	0	0	0	1.0
[RightShoulder]
96	-45.69969559	109.4617615	-26.28017426	8.455510139	-10.45046997	9.600279808	1.0
97	-45.69969559	109.4617615	-26.28017426	10.51636887	-11.47356129	9.443922043	1.0
98	-45.69969559	109.4617615	-26.28017426	12.45777512	-12.05648518	9.157588959	1.0
99	-45.69969559	109.4617615	-26.28017426	14.21689034	-12.17374516	8.691199303	1.0
[RightArm]
96	-105.9284363	-5.247983932	-22.32098579	-40.48737335	32.6315155	27.29203606	1.0
97	-105.9284363	-5.247983932	-22.32098579	-32.47544098	28.15058517	36.30228424	1.0
98	-105.9284363	-5.247983932	-22.32098579	-25.59117508	23.40376282	43.56713486	1.0
99	-105.9284363	-5.247983932	-22.32098579	-20.41909981	18.68278313	48.44942474	1.0
[RightForeArm]
96	-278.4151917	-0.0003307921579	0.0001167631053	-635.0112915	68.32739258	-698.361084	1.0
97	-278.4151917	-0.0003307921579	0.0001167631053	-645.5622559	72.38279724	-706.4248657	1.0
98	-278.4151917	-0.0003307921579	0.0001167631053	-657.8304443	78.52857971	-716.4016113	1.0
99	-278.4151917	-0.0003307921579	0.0001167631053	-699.5175781	85.13943481	-755.574585	1.0
[RightHand]
96	-283.2883911	-1.581417109e-06	0.000558160129	-74.37112427	15.83802032	-1.761946082	1.0
97	-283.2883911	-1.581417109e-06	0.000558160129	-74.5368576	15.00401497	-2.869780779	1.0
98	-283.2883911	-1.581417109e-06	0.000558160129	-74.62204742	14.15436268	-3.994828701	1.0
99	-283.2883911	-1.581417109e-06	0.000558160129	-74.69229889	13.44692612	-5.223541737	1.0
[RightHandPinky1]
96	-80.76674652	-4.88459301	-38.06010437	-21.25884628	-3.629856348	99.7305603	1.0
97	-80.76674652	-4.88459301	-38.06010437	-19.83864212	-9.055280685	85.12353516	1.0
98	-80.76674652	-4.88459301	-38.06010437	-18.16475487	-15.40811443	67.95257568	1.0
99	-80.76674652	-4.88459301	-38.06010437	-16.37811661	-21.84014511	49.84939575	1.0
[RightHandPinky2]
96	-36.00034332	0.0003967665543	0.0005081442068	0.6136464477	-9.132939339	87.82137299	1.0
97	-36.00034332	0.0003967665543	0.0005081442068	0.7309564948	-7.69667387	73.49110413	1.0
98	-36.00034332	0.0003967665543	0.0005081442068	0.8596870899	-5.995078087	56.66262817	1.0
99	-36.00034332	0.0003967665543	0.0005081442068	0.881698966	-4.092344761	39.09651947	1.0
[RightHandPinky3]
96	-21.14211655	0.0001513792522	0.0001479376951	-1.121376872	-3.938836098	53.57060242	1.0
97	-21.14211655	0.0001513792522	0.0001479376951	-1.842343211	-3.547452688	46.60560989	1.0
98	-21.14211655	0.0001513792522	0.0001479376951	-2.692323685	-3.085046053	38.42492676	1.0
99	-21.14211655	0.0001513792522	0.0001479376951	-3.615012407	-2.577979565	29.87103271	1.0
[RightHandPinky4]
96	-19.7568264	-0.000185219571	-9.839841368e-06	0	0	0	1.0
97	-19.7568264	-0.000185219571	-9.839841368e-06	0	0	0	1.0
98	-19.7568264	-0.000185219571	-9.839841368e-06	0	0	0	1.0
99	-19.7568264	-0.000185219571	-9.839841368e-06	0	0	0	1.0
[RightHandRing1]
96	-91.03588104	-0.4391434789	-18.65072441	-15.19833374	-6.280762672	93.6605072	1.0
97	-91.03588104	-0.4391434789	-18.65072441	-12.87558651	-8.086066246	75.72796631	1.0
98	-91.03588104	-0.4391434789	-18.65072441	-10.14971161	-10.17773819	54.66027451	1.0
99	-91.03588104	-0.4391434789	-18.65072441	-7.388551712	-12.08852482	32.60913086	1.0
[RightHandRing2]
96	-31.54026794	0.0002399729856	0.0004885121016	-1.902396679	-6.713774204	100.583252	1.0
97	-31.54026794	0.0002399729856	0.0004885121016	-2.320635319	-5.824639797	85.09688568	1.0
98	-31.54026794	0.0002399729856	0.0004885121016	-2.818923235	-4.761850357	66.90959167	1.0
99	-31.54026794	0.0002399729856	0.0004885121016	-3.444371462	-3.487768173	47.91624451	1.0
[RightHandRing3]
96	-29.37672424	-0.0004160065437	-0.0003966063377	1.850799799	-4.836913586	49.778862	1.0
97	-29.37672424	-0.0004160065437	-0.0003966063377	0.9765000343	-4.094768047	42.75994492	1.0
98	-29.37672424	-0.0004160065437	-0.0003966063377	-0.05383421853	-3.220556974	34.51610565	1.0
99	-29.37672424	-0.0004160065437	-0.0003966063377	-1.167063475	-2.284751892	25.89806747	1.0
[RightHandRing4]
96	-26.47452545	0.0002460821415	-2.294923434e-05	0	0	0	1.0
97	-26.47452545	0.0002460821415	-2.294923434e-05	0	0	0	1.0
98	-26.47452545	0.0002460821415	-2.294923434e-05	0	0	0	1.0
99	-26.47452545	0.0002460821415	-2.294923434e-05	0	0	0	1.0
[RightHandMiddle1]
96	-95.32502747	-0.0001631230261	0.0001679184206	-10.06707764	-7.057574272	86.64319611	1.0
97	-95.32502747	-0.0001631230261	0.0001679184206	-8.087429047	-6.413446903	67.56288147	1.0
98	-95.32502747	-0.0001631230261	0.0001679184206	-5.771175385	-5.625472069	45.15402222	1.0
99	-95.32502747	-0.0001631230261	0.0001679184206	-3.511939049	-4.523465157	21.76916695	1.0
[RightHandMiddle2]
96	-36.98236847	0.000150669599	-0.0002254552383	-3.062378407	-5.662967205	89.06707001	1.0
97	-36.98236847	0.000150669599	-0.0002254552383	-2.454267025	-4.96664238	73.7129364	1.0
98	-36.98236847	0.000150669599	-0.0002254552383	-1.750329852	-4.132198334	55.68030548	1.0
99	-36.98236847	0.000150669599	-0.0002254552383	-1.145739555	-3.121171951	36.84116364	1.0
[RightHandMiddle3]
96	-29.50921631	-3.113244929e-06	-3.03402544e-06	-2.0620718	-3.796435833	56.17784882	1.0
97	-29.50921631	-3.113244929e-06	-3.03402544e-06	-1.554145098	-3.317778111	47.61412811	1.0
98	-29.50921631	-3.113244929e-06	-3.03402544e-06	-0.9625035524	-2.751550436	37.5556221	1.0
99	-29.50921631	-3.113244929e-06	-3.03402544e-06	-0.3953740597	-2.126353502	27.03870201	1.0
[RightHandMiddle4]
96	-28.3390255	8.05324089e-05	0.0005378770875	0	0	0	1.0
97	-28.3390255	8.05324089e-05	0.0005378770875	0	0	0	1.0
98	-28.3390255	8.05324089e-05	0.0005378770875	0	0	0	1.0
99	-28.3390255	8.05324089e-05	0.0005378770875	0	0	0	1.0
[RightHandIndex1]
96	-91.08280945	-5.167889595	22.60116386	-5.996349812	-6.99484396	89.29683685	1.0
97	-91.08280945	-5.167889595	22.60116386	-5.223106861	-3.885372162	68.20580292	1.0
98	-91.08280945	-5.167889595	22.60116386	-4.32670927	-0.1955635548	43.44459152	1.0
99	-91.08280945	-5.167889595	22.60116386	-3.593264103	3.975676775	17.665411	1.0
[RightHandIndex2]
96	-36.76409531	0.0001922715601	0.0003235567128	-2.787034512	-3.829712152	58.84283829	1.0
97	-36.76409531	0.0001922715601	0.0003235567128	-1.817230821	-3.400718927	50.00845718	1.0
98	-36.76409531	0.0001922715601	0.0003235567128	-0.6832126975	-2.892375946	39.63183975	1.0
99	-36.76409531	0.0001922715601	0.0003235567128	0.449159354	-2.324055433	28.78215027	1.0
[RightHandIndex3]
96	-28.83062553	-0.0004960121587	0.0004044897505	-0.7160890102	-4.122909069	49.9894104	1.0
97	-28.83062553	-0.0004960121587	0.0004044897505	-0.3600769341	-3.56866169	42.61671448	1.0
98	-28.83062553	-0.0004960121587	0.0004044897505	0.05419285968	-2.914927959	33.95733643	1.0
99	-28.83062553	-0.0004960121587	0.0004044897505	0.4478943944	-2.208615065	24.90362167	1.0
[RightHandIndex4]
96	-23.92720032	0.0002681470069	0.0002802013478	0	0	0	1.0
97	-23.92720032	0.0002681470069	0.0002802013478	0	0	0	1.0
98	-23.92720032	0.0002681470069	0.0002802013478	0	0	0	1.0
99	-23.92720032	0.0002681470069	0.0002802013478	0	0	0	1.0
[RightHandThumb1]
96	-24.64805984	-15.72714233	26.82626534	-21.53639984	2.727900505	12.4170332	1.0
97	-24.64805984	-15.72714233	26.82626534	-16.60714912	5.24325943	7.991711617	1.0
98	-24.64805984	-15.72714233	26.82626534	-10.82765293	8.216776848	2.804180622	1.0
99	-24.64805984	-15.72714233	26.82626534	-4.881287575	11.48699474	-2.516142368	1.0
[RightHandThumb2]
96	-32.29771805	-18.6470871	18.64718437	34.79496002	-33.15729523	-34.52465057	1.0
97	-32.29771805	-18.6470871	18.64718437	27.30889511	-31.65066528	-28.21120262	1.0
98	-32.29771805	-18.6470871	18.64718437	18.54964638	-29.84217834	-20.80677032	1.0
99	-32.29771805	-18.6470871	18.64718437	9.775731087	-27.60546303	-13.22508907	1.0
[RightHandThumb3]
96	-26.52605057	-15.31449318	15.31445599	-5.752680302	-32.46943283	-6.369892597	1.0
97	-26.52605057	-15.31449318	15.31445599	-6.239487171	-24.4478054	-5.935478687	1.0
98	-26.52605057	-15.31449318	15.31445599	-6.822259426	-15.0274744	-5.454449654	1.0
99	-26.52605057	-15.31449318	15.31445599	-7.568053722	-5.227497578	-5.242392063	1.0
[RightHandThumb4]
96	-19.54580498	-11.28461742	11.28507042	0	0	0	1.0
97	-19.54580498	-11.28461742	11.28507042	0	0	0	1.0
98	-19.54580498	-11.28461742	11.28507042	0	0	0	1.0
99	-19.54580498	-11.28461742	11.28507042	0	0	0	1.0
[LeftUpLeg]
96	82.07781982	-67.51714325	-15.99555588	-38.66748428	45.51766968	1.13552475	1.0
97	82.07781982	-67.51714325	-15.99555588	-36.82772446	44.71240997	4.234600067	1.0
98	82.07781982	-67.51714325	-15.99555588	-34.46379471	43.66226196	7.067830086	1.0
99	82.07781982	-67.51714325	-15.99555588	-31.99249077	42.69760895	9.538302422	1.0
[LeftLeg]
96	-4.110157988e-06	-443.7047119	2.846426487	73.57897186	-12.27825546	-6.517305374	1.0
97	-4.110157988e-06	-443.7047119	2.846426487	75.4865036	-12.19766712	-6.853518963	1.0
98	-4.110157988e-06	-443.7047119	2.846426487	76.29110718	-12.04921627	-7.03075552	1.0
99	-4.110157988e-06	-443.7047119	2.846426487	76.17527008	-12.00330925	-7.022779942	1.0
[LeftFoot]
96	4.716393505e-06	-444.278717	-29.82190704	-35.07532501	-16.24440193	3.77795887	1.0
97	4.716393505e-06	-444.278717	-29.82190704	-36.79872894	-17.67543221	5.300854683	1.0
98	4.716393505e-06	-444.278717	-29.82190704	-38.09183121	-18.92867851	6.553564072	1.0
99	4.716393505e-06	-444.278717	-29.82190704	-38.69071579	-20.15439796	7.46589756	1.0
[LeftToeBase]
96	-2.960988058e-05	-87.28669739	107.1055984	-0.9259197712	-6.712255072e-06	-3.88149283e-06	1.0
97	-2.960988058e-05	-87.28669739	107.1055984	-0.7981986403	-2.13885528e-06	-3.705374638e-06	1.0
98	-2.960988058e-05	-87.28669739	107.1055984	-0.6619093418	3.569492492e-06	-2.351004241e-06	1.0
99	-2.960988058e-05	-87.28669739	107.1055984	-0.5893668532	6.952470358e-06	-5.800722533e-07	1.0
[RightUpLeg]
96	-82.07795715	-67.51662445	-15.99559402	-50.43703461	-26.4093132	3.511113405	1.0
97	-82.07795715	-67.51662445	-15.99559402	-47.99137878	-27.72727013	2.813824892	1.0
98	-82.07795715	-67.51662445	-15.99559402	-45.22685242	-29.15157318	1.96840632	1.0
99	-82.07795715	-67.51662445	-15.99559402	-42.29289246	-30.41704369	1.215229988	1.0
[RightLeg]
96	8.435572454e-07	-443.7053833	2.861563921	73.48321533	6.759186268	-9.655155182	1.0
97	8.435572454e-07	-443.7053833	2.861563921	74.82605743	6.416554451	-10.00271606	1.0
98	8.435572454e-07	-443.7053833	2.861563921	75.25683594	6.127686977	-10.158535	1.0
99	8.435572454e-07	-443.7053833	2.861563921	74.75998688	5.757282734	-10.29360485	1.0
[RightFoot]
96	9.644581951e-06	-444.2773132	-29.83789063	-27.94524956	7.094552994	3.00336194	1.0
97	9.644581951e-06	-444.2773132	-29.83789063	-29.19903183	7.250332832	3.775450468	1.0
98	9.644581951e-06	-444.2773132	-29.83789063	-30.04820442	7.354310513	4.510240555	1.0
99	9.644581951e-06	-444.2773132	-29.83789063	-30.40015411	7.383704662	5.222258568	1.0
[RightToeBase]
96	-2.360438157e-05	-87.28668976	107.1056061	2.060548067	0.0001442129578	-0.001170908101	1.0
97	-2.360438157e-05	-87.28668976	107.1056061	2.122992039	0.0001680224086	-0.001302188379	1.0
98	-2.360438157e-05	-87.28668976	107.1056061	2.238192558	0.0001982187678	-0.001507941866	1.0
99	-2.360438157e-05	-87.28668976	107.1056061	2.288169146	0.000199811635	-0.001543700462	1.0
[EndOfFile]
